<svg width="138" height="138" viewBox="0 0 138 138" fill="none" xmlns="http://www.w3.org/2000/svg">
<g clip-path="url(#clip0)">
<g filter="url(#filter0_d)">
<rect x="19" y="19" width="14" height="55" rx="6" fill="url(#paint0_linear)"/>
</g>
<g filter="url(#filter1_ddii)">
<circle cx="69" cy="69" r="50" fill="url(#paint1_linear)"/>
<circle cx="69" cy="69" r="44" stroke="url(#paint2_linear)" stroke-width="12"/>
</g>
<g filter="url(#filter2_dii)">
<path d="M69 107C89.9868 107 107 89.9524 107 68.9231H89.7273V62H82.2424C82.2424 62 78.2121 64.8846 69 64.8846C59.7879 64.8846 56.3333 62 56.3333 62H48.2727V68.9231H31C31 89.9524 48.0132 107 69 107Z" fill="url(#paint3_linear)" fill-opacity="0.5"/>
<path d="M89.6648 62.0625V68.9231V68.9856H89.7273H106.937C106.904 89.9517 89.9314 106.938 69 106.938C48.0686 106.938 31.0962 89.9517 31.0626 68.9856H48.2727H48.3352V68.9231V62.0625H56.3113C56.3178 62.0677 56.3262 62.0742 56.3363 62.082C56.3646 62.1037 56.4069 62.1352 56.4639 62.1751C56.5778 62.255 56.7503 62.3687 56.9858 62.5048C57.4568 62.7771 58.1799 63.1393 59.1911 63.5012C61.2135 64.2249 64.3873 64.9471 69 64.9471C73.6127 64.9471 76.93 64.2249 79.0956 63.5016C80.1783 63.1399 80.9729 62.7781 81.4975 62.5062C81.7598 62.3703 81.9545 62.2568 82.084 62.1772C82.1487 62.1374 82.1972 62.106 82.2295 62.0844C82.2432 62.0753 82.2541 62.068 82.262 62.0625H89.6648Z" stroke="url(#paint4_linear)" stroke-opacity="0.7" stroke-width="0.125"/>
</g>
</g>
<defs>
<filter id="filter0_d" x="11" y="11" width="46" height="87" filterUnits="userSpaceOnUse" color-interpolation-filters="sRGB">
<feFlood flood-opacity="0" result="BackgroundImageFix"/>
<feColorMatrix in="SourceAlpha" type="matrix" values="0 0 0 0 0 0 0 0 0 0 0 0 0 0 0 0 0 0 127 0"/>
<feOffset dx="8" dy="8"/>
<feGaussianBlur stdDeviation="8"/>
<feColorMatrix type="matrix" values="0 0 0 0 0 0 0 0 0 0 0 0 0 0 0 0 0 0 0.1 0"/>
<feBlend mode="normal" in2="BackgroundImageFix" result="effect1_dropShadow"/>
<feBlend mode="normal" in="SourceGraphic" in2="effect1_dropShadow" result="shape"/>
</filter>
<filter id="filter1_ddii" x="-5" y="-5" width="148" height="148" filterUnits="userSpaceOnUse" color-interpolation-filters="sRGB">
<feFlood flood-opacity="0" result="BackgroundImageFix"/>
<feColorMatrix in="SourceAlpha" type="matrix" values="0 0 0 0 0 0 0 0 0 0 0 0 0 0 0 0 0 0 127 0"/>
<feOffset dx="-8" dy="-8"/>
<feGaussianBlur stdDeviation="8"/>
<feColorMatrix type="matrix" values="0 0 0 0 1 0 0 0 0 1 0 0 0 0 1 0 0 0 0.2 0"/>
<feBlend mode="normal" in2="BackgroundImageFix" result="effect1_dropShadow"/>
<feColorMatrix in="SourceAlpha" type="matrix" values="0 0 0 0 0 0 0 0 0 0 0 0 0 0 0 0 0 0 127 0"/>
<feOffset dx="8" dy="8"/>
<feGaussianBlur stdDeviation="8"/>
<feColorMatrix type="matrix" values="0 0 0 0 0 0 0 0 0 0 0 0 0 0 0 0 0 0 0.2 0"/>
<feBlend mode="normal" in2="effect1_dropShadow" result="effect2_dropShadow"/>
<feBlend mode="normal" in="SourceGraphic" in2="effect2_dropShadow" result="shape"/>
<feColorMatrix in="SourceAlpha" type="matrix" values="0 0 0 0 0 0 0 0 0 0 0 0 0 0 0 0 0 0 127 0" result="hardAlpha"/>
<feOffset dx="8" dy="8"/>
<feGaussianBlur stdDeviation="8"/>
<feComposite in2="hardAlpha" operator="arithmetic" k2="-1" k3="1"/>
<feColorMatrix type="matrix" values="0 0 0 0 0 0 0 0 0 0 0 0 0 0 0 0 0 0 0.1 0"/>
<feBlend mode="normal" in2="shape" result="effect3_innerShadow"/>
<feColorMatrix in="SourceAlpha" type="matrix" values="0 0 0 0 0 0 0 0 0 0 0 0 0 0 0 0 0 0 127 0" result="hardAlpha"/>
<feOffset dx="-8" dy="-8"/>
<feGaussianBlur stdDeviation="8"/>
<feComposite in2="hardAlpha" operator="arithmetic" k2="-1" k3="1"/>
<feColorMatrix type="matrix" values="0 0 0 0 1 0 0 0 0 1 0 0 0 0 1 0 0 0 0.25 0"/>
<feBlend mode="normal" in2="effect3_innerShadow" result="effect4_innerShadow"/>
</filter>
<filter id="filter2_dii" x="23" y="52" width="92" height="61" filterUnits="userSpaceOnUse" color-interpolation-filters="sRGB">
<feFlood flood-opacity="0" result="BackgroundImageFix"/>
<feColorMatrix in="SourceAlpha" type="matrix" values="0 0 0 0 0 0 0 0 0 0 0 0 0 0 0 0 0 0 127 0"/>
<feOffset dy="-2"/>
<feGaussianBlur stdDeviation="4"/>
<feColorMatrix type="matrix" values="0 0 0 0 0.845833 0 0 0 0 0.625541 0 0 0 0 0.501626 0 0 0 0.4 0"/>
<feBlend mode="normal" in2="BackgroundImageFix" result="effect1_dropShadow"/>
<feBlend mode="normal" in="SourceGraphic" in2="effect1_dropShadow" result="shape"/>
<feColorMatrix in="SourceAlpha" type="matrix" values="0 0 0 0 0 0 0 0 0 0 0 0 0 0 0 0 0 0 127 0" result="hardAlpha"/>
<feOffset dx="4" dy="4"/>
<feGaussianBlur stdDeviation="4"/>
<feComposite in2="hardAlpha" operator="arithmetic" k2="-1" k3="1"/>
<feColorMatrix type="matrix" values="0 0 0 0 0 0 0 0 0 0 0 0 0 0 0 0 0 0 0.1 0"/>
<feBlend mode="normal" in2="shape" result="effect2_innerShadow"/>
<feColorMatrix in="SourceAlpha" type="matrix" values="0 0 0 0 0 0 0 0 0 0 0 0 0 0 0 0 0 0 127 0" result="hardAlpha"/>
<feOffset dx="-4" dy="-4"/>
<feGaussianBlur stdDeviation="2"/>
<feComposite in2="hardAlpha" operator="arithmetic" k2="-1" k3="1"/>
<feColorMatrix type="matrix" values="0 0 0 0 1 0 0 0 0 1 0 0 0 0 1 0 0 0 0.25 0"/>
<feBlend mode="normal" in2="effect2_innerShadow" result="effect3_innerShadow"/>
</filter>
<linearGradient id="paint0_linear" x1="4.41667" y1="8.55" x2="82.1334" y2="85.7156" gradientUnits="userSpaceOnUse">
<stop stop-color="white"/>
<stop offset="1" stop-color="#D6D6D6"/>
</linearGradient>
<linearGradient id="paint1_linear" x1="36.2222" y1="33.4444" x2="102.889" y2="104" gradientUnits="userSpaceOnUse">
<stop stop-color="#BDBDBD"/>
<stop offset="0.930555" stop-color="#F1F1F1"/>
</linearGradient>
<linearGradient id="paint2_linear" x1="27.3333" y1="32.8889" x2="108.444" y2="109" gradientUnits="userSpaceOnUse">
<stop stop-color="#FBF9F9"/>
<stop offset="1" stop-color="#C1C1C1"/>
</linearGradient>
<linearGradient id="paint3_linear" x1="39.6364" y1="48.1538" x2="94.4463" y2="104.005" gradientUnits="userSpaceOnUse">
<stop stop-color="#964416"/>
<stop offset="1" stop-color="#D8A080"/>
</linearGradient>
<linearGradient id="paint4_linear" x1="51.7273" y1="55.0769" x2="90.9813" y2="108.078" gradientUnits="userSpaceOnUse">
<stop stop-color="#FF8A49"/>
<stop offset="1" stop-color="#844905"/>
</linearGradient>
<clipPath id="clip0">
<rect width="138" height="138" fill="white"/>
</clipPath>
</defs>
</svg>
