<svg width="138" height="138" viewBox="0 0 138 138" fill="none" xmlns="http://www.w3.org/2000/svg">
<g filter="url(#filter0_d)">
<rect x="24" y="24" width="12" height="50" rx="6" fill="url(#paint0_linear)"/>
</g>
<g filter="url(#filter1_ddii)">
<circle cx="69" cy="69" r="45" fill="url(#paint1_linear)"/>
<circle cx="69" cy="69" r="39" stroke="url(#paint2_linear)" stroke-width="12"/>
</g>
<g filter="url(#filter2_dii)">
<path d="M69 102C87.2254 102 102 87.2254 102 69H87V63H80.5C80.5 63 77 65.5 69 65.5C61 65.5 58 63 58 63H51V69H36C36 87.2254 50.7746 102 69 102Z" fill="url(#paint3_linear)" fill-opacity="0.5"/>
<path d="M87 69.0625H101.937C101.904 87.2246 87.17 101.938 69 101.938C50.83 101.938 36.0963 87.2246 36.0626 69.0625H51H51.0625V69V63.0625H57.978C57.9834 63.0667 57.9899 63.0718 57.9977 63.0777C58.0223 63.0966 58.0591 63.1239 58.1087 63.1586C58.2078 63.228 58.3578 63.3266 58.5625 63.4448C58.972 63.681 59.6004 63.9951 60.479 64.3089C62.2362 64.9364 64.9934 65.5625 69 65.5625C73.0066 65.5625 75.8883 64.9364 77.7698 64.3093C78.7104 63.9957 79.4009 63.682 79.8568 63.4461C80.0848 63.3282 80.2541 63.2298 80.3667 63.1607C80.423 63.1261 80.4651 63.0989 80.4933 63.0802C80.5041 63.073 80.5128 63.0671 80.5195 63.0625H86.9375V69V69.0625H87Z" stroke="url(#paint4_linear)" stroke-opacity="0.7" stroke-width="0.125"/>
</g>
<defs>
<filter id="filter0_d" x="16" y="16" width="44" height="82" filterUnits="userSpaceOnUse" color-interpolation-filters="sRGB">
<feFlood flood-opacity="0" result="BackgroundImageFix"/>
<feColorMatrix in="SourceAlpha" type="matrix" values="0 0 0 0 0 0 0 0 0 0 0 0 0 0 0 0 0 0 127 0"/>
<feOffset dx="8" dy="8"/>
<feGaussianBlur stdDeviation="8"/>
<feColorMatrix type="matrix" values="0 0 0 0 0 0 0 0 0 0 0 0 0 0 0 0 0 0 0.1 0"/>
<feBlend mode="normal" in2="BackgroundImageFix" result="effect1_dropShadow"/>
<feBlend mode="normal" in="SourceGraphic" in2="effect1_dropShadow" result="shape"/>
</filter>
<filter id="filter1_ddii" x="0" y="0" width="138" height="138" filterUnits="userSpaceOnUse" color-interpolation-filters="sRGB">
<feFlood flood-opacity="0" result="BackgroundImageFix"/>
<feColorMatrix in="SourceAlpha" type="matrix" values="0 0 0 0 0 0 0 0 0 0 0 0 0 0 0 0 0 0 127 0"/>
<feOffset dx="-8" dy="-8"/>
<feGaussianBlur stdDeviation="8"/>
<feColorMatrix type="matrix" values="0 0 0 0 1 0 0 0 0 1 0 0 0 0 1 0 0 0 0.2 0"/>
<feBlend mode="normal" in2="BackgroundImageFix" result="effect1_dropShadow"/>
<feColorMatrix in="SourceAlpha" type="matrix" values="0 0 0 0 0 0 0 0 0 0 0 0 0 0 0 0 0 0 127 0"/>
<feOffset dx="8" dy="8"/>
<feGaussianBlur stdDeviation="8"/>
<feColorMatrix type="matrix" values="0 0 0 0 0 0 0 0 0 0 0 0 0 0 0 0 0 0 0.2 0"/>
<feBlend mode="normal" in2="effect1_dropShadow" result="effect2_dropShadow"/>
<feBlend mode="normal" in="SourceGraphic" in2="effect2_dropShadow" result="shape"/>
<feColorMatrix in="SourceAlpha" type="matrix" values="0 0 0 0 0 0 0 0 0 0 0 0 0 0 0 0 0 0 127 0" result="hardAlpha"/>
<feOffset dx="8" dy="8"/>
<feGaussianBlur stdDeviation="8"/>
<feComposite in2="hardAlpha" operator="arithmetic" k2="-1" k3="1"/>
<feColorMatrix type="matrix" values="0 0 0 0 0 0 0 0 0 0 0 0 0 0 0 0 0 0 0.1 0"/>
<feBlend mode="normal" in2="shape" result="effect3_innerShadow"/>
<feColorMatrix in="SourceAlpha" type="matrix" values="0 0 0 0 0 0 0 0 0 0 0 0 0 0 0 0 0 0 127 0" result="hardAlpha"/>
<feOffset dx="-8" dy="-8"/>
<feGaussianBlur stdDeviation="8"/>
<feComposite in2="hardAlpha" operator="arithmetic" k2="-1" k3="1"/>
<feColorMatrix type="matrix" values="0 0 0 0 1 0 0 0 0 1 0 0 0 0 1 0 0 0 0.25 0"/>
<feBlend mode="normal" in2="effect3_innerShadow" result="effect4_innerShadow"/>
</filter>
<filter id="filter2_dii" x="28" y="53" width="82" height="55" filterUnits="userSpaceOnUse" color-interpolation-filters="sRGB">
<feFlood flood-opacity="0" result="BackgroundImageFix"/>
<feColorMatrix in="SourceAlpha" type="matrix" values="0 0 0 0 0 0 0 0 0 0 0 0 0 0 0 0 0 0 127 0"/>
<feOffset dy="-2"/>
<feGaussianBlur stdDeviation="4"/>
<feColorMatrix type="matrix" values="0 0 0 0 0.845833 0 0 0 0 0.625541 0 0 0 0 0.501626 0 0 0 0.4 0"/>
<feBlend mode="normal" in2="BackgroundImageFix" result="effect1_dropShadow"/>
<feBlend mode="normal" in="SourceGraphic" in2="effect1_dropShadow" result="shape"/>
<feColorMatrix in="SourceAlpha" type="matrix" values="0 0 0 0 0 0 0 0 0 0 0 0 0 0 0 0 0 0 127 0" result="hardAlpha"/>
<feOffset dx="4" dy="4"/>
<feGaussianBlur stdDeviation="4"/>
<feComposite in2="hardAlpha" operator="arithmetic" k2="-1" k3="1"/>
<feColorMatrix type="matrix" values="0 0 0 0 0 0 0 0 0 0 0 0 0 0 0 0 0 0 0.1 0"/>
<feBlend mode="normal" in2="shape" result="effect2_innerShadow"/>
<feColorMatrix in="SourceAlpha" type="matrix" values="0 0 0 0 0 0 0 0 0 0 0 0 0 0 0 0 0 0 127 0" result="hardAlpha"/>
<feOffset dx="-4" dy="-4"/>
<feGaussianBlur stdDeviation="2"/>
<feComposite in2="hardAlpha" operator="arithmetic" k2="-1" k3="1"/>
<feColorMatrix type="matrix" values="0 0 0 0 1 0 0 0 0 1 0 0 0 0 1 0 0 0 0.25 0"/>
<feBlend mode="normal" in2="effect2_innerShadow" result="effect3_innerShadow"/>
</filter>
<linearGradient id="paint0_linear" x1="11.5" y1="14.5" x2="82" y2="80.5" gradientUnits="userSpaceOnUse">
<stop stop-color="white"/>
<stop offset="1" stop-color="#D6D6D6"/>
</linearGradient>
<linearGradient id="paint1_linear" x1="39.5" y1="37" x2="99.5" y2="100.5" gradientUnits="userSpaceOnUse">
<stop stop-color="#BDBDBD"/>
<stop offset="0.930555" stop-color="#F1F1F1"/>
</linearGradient>
<linearGradient id="paint2_linear" x1="31.5" y1="36.5" x2="104.5" y2="105" gradientUnits="userSpaceOnUse">
<stop stop-color="#FBF9F9"/>
<stop offset="1" stop-color="#C1C1C1"/>
</linearGradient>
<linearGradient id="paint3_linear" x1="43.5" y1="51" x2="91" y2="99.5" gradientUnits="userSpaceOnUse">
<stop stop-color="#964416"/>
<stop offset="1" stop-color="#D8A080"/>
</linearGradient>
<linearGradient id="paint4_linear" x1="54" y1="57" x2="88" y2="103" gradientUnits="userSpaceOnUse">
<stop stop-color="#FF8A49"/>
<stop offset="1" stop-color="#844905"/>
</linearGradient>
</defs>
</svg>
